<svg width="200" height="200" viewBox="0 0 134 120" fill="none" xmlns="http://www.w3.org/2000/svg">
<path d="M125.293 60.7071C125.683 61.0976 126.317 61.0976 126.707 60.7071L133.071 54.3431C133.462 53.9526 133.462 53.3195 133.071 52.9289C132.681 52.5384 132.047 52.5384 131.657 52.9289L126 58.5858L120.343 52.9289C119.953 52.5384 119.319 52.5384 118.929 52.9289C118.538 53.3195 118.538 53.9526 118.929 54.3431L125.293 60.7071ZM66 0C65.4477 0 65 0.447715 65 1C65 1.55228 65.4477 2 66 2V0ZM66 2C98.607 2 125 27.4276 125 60H127C127 26.2792 99.6672 0 66 0V2Z" fill="#462915"/>
<path d="M8.70711 59.2929C8.31658 58.9024 7.68342 58.9024 7.29289 59.2929L0.928931 65.6569C0.538406 66.0474 0.538406 66.6805 0.928931 67.0711C1.31946 67.4616 1.95262 67.4616 2.34314 67.0711L8 61.4142L13.6569 67.0711C14.0474 67.4616 14.6805 67.4616 15.0711 67.0711C15.4616 66.6805 15.4616 66.0474 15.0711 65.6569L8.70711 59.2929ZM68 120C68.5523 120 69 119.552 69 119C69 118.448 68.5523 118 68 118V120ZM68 118C35.393 118 9 92.5724 9 60H7C7 93.7208 34.3328 120 68 120V118Z" fill="#462915"/>
</svg>
