<svg width="35" height="35" viewBox="0 0 35 35" fill="none" xmlns="http://www.w3.org/2000/svg">
<path d="M28.1584 20.3337L26.5615 21.2386L5.05676 8.83613C4.68415 8.62322 4.52446 8.14415 4.79061 7.77154C5.00353 7.39893 5.4826 7.23924 5.8552 7.50539L28.1584 20.3337Z" fill="#0088e9"/>
<path d="M30.4474 16.3948L16.3415 8.25061L7.66507 3.19379C4.25837 1.27753 0 3.72609 0 7.61186V27.8391C0 31.7249 4.20514 34.1202 7.55861 32.204L10.5395 30.5006L16.3947 27.1471L24.4856 22.5162L3.99222 10.6992C2.60825 9.90073 2.12919 8.09092 2.92763 6.70695C3.72608 5.26975 5.53589 4.79068 6.91986 5.58913L30.2344 19.0562L30.3941 18.9498C31.4587 18.4175 31.4587 16.927 30.4474 16.3948Z" fill="#0088e9"/>
</svg>
